<?xml version="1.0" encoding="utf-8"?>
<!-- Generator: Adobe Illustrator 19.0.0, SVG Export Plug-In . SVG Version: 6.00 Build 0)  -->
<svg version="1.1" id="Layer_1" xmlns="http://www.w3.org/2000/svg" xmlns:xlink="http://www.w3.org/1999/xlink" x="0px" y="0px"
	 viewBox="0 0 50 50" style="enable-background:new 0 0 50 50;" xml:space="preserve">
<style type="text/css">
	.st0{fill:#FFFFFF;}
</style>
<g>
	<path class="st0" d="M36.9,19.3L27,4.4c-0.4-0.4-1.1-0.9-1.8-0.9c-0.7,0-1.4,0.2-1.8,0.9l-9.9,14.8H2.8c-1.4,0-2.3,0.9-2.3,2.2v0.7
		l5.6,20.9c0.4,1.8,2.3,3.4,4.3,3.4h29.2c2,0,3.8-1.3,4.3-3.4l5.6-20.9v-0.7c0-1.3-0.9-2.2-2.2-2.2H36.9z M18.5,19.3l6.8-9.9
		l6.7,9.9H18.5z M25.2,37.2c-2.5,0-4.5-2-4.5-4.5c0-2.5,2-4.5,4.5-4.5c2.5,0,4.5,2,4.5,4.5C29.7,35.2,27.7,37.2,25.2,37.2L25.2,37.2
		z M25.2,37.2"/>
</g>
</svg>
