<svg xmlns="http://www.w3.org/2000/svg" xmlns:xlink="http://www.w3.org/1999/xlink" width="423" height="269" viewBox="0 0 423 269"><svg width="101" height="30" viewBox="0 0 101 30"><title>apple</title><g fill="none"><rect stroke="#979797" x=".5" y=".5" width="99.148" height="29" rx="3"/><path d="M29.56 15.627c-.024-2.533 2.06-3.748 2.154-3.808-1.172-1.72-2.996-1.956-3.647-1.983-1.552-.158-3.03.917-3.818.917-.787 0-2.003-.894-3.29-.87-1.693.025-3.254.987-4.125 2.507-1.76 3.06-.45 7.596 1.263 10.078.838 1.215 1.837 2.58 3.148 2.53 1.262-.05 1.74-.82 3.266-.82 1.527 0 1.956.82 3.292.796 1.36-.026 2.22-1.24 3.052-2.457.96-1.41 1.357-2.775 1.38-2.845-.03-.013-2.65-1.02-2.675-4.045zm-2.51-7.433c.696-.847 1.166-2.022 1.038-3.194-1.003.04-2.218.67-2.937 1.515-.644.75-1.21 1.945-1.058 3.094 1.12.087 2.262-.57 2.958-1.416z" fill="#222" fill-rule="nonzero"/><path d="M44.582 19l-.708-1.776H39.89L39.182 19h-1.14l3.216-8.004h1.236L45.722 19h-1.14zm-2.7-6.972l-1.704 4.308h3.396l-1.692-4.308zm5.748 9.18h-.9v-8.004h.9v.864a2.423 2.423 0 0 1 1.956-1.008c1.524 0 2.58 1.152 2.58 3.036 0 1.872-1.056 3.048-2.58 3.048-.792 0-1.488-.372-1.956-1.02v3.084zm3.588-5.112c0-1.284-.696-2.232-1.86-2.232-.708 0-1.416.42-1.728.924v2.616c.312.504 1.02.936 1.728.936 1.164 0 1.86-.96 1.86-2.244zm3.3 5.112h-.9v-8.004h.9v.864a2.423 2.423 0 0 1 1.956-1.008c1.524 0 2.58 1.152 2.58 3.036 0 1.872-1.056 3.048-2.58 3.048-.792 0-1.488-.372-1.956-1.02v3.084zm3.588-5.112c0-1.284-.696-2.232-1.86-2.232-.708 0-1.416.42-1.728.924v2.616c.312.504 1.02.936 1.728.936 1.164 0 1.86-.96 1.86-2.244zm5.052 1.776l.588-.756a3.383 3.383 0 0 0 2.52 1.14c1.428 0 1.884-.768 1.884-1.38 0-.96-.972-1.224-2.028-1.512-1.284-.336-2.712-.696-2.712-2.268 0-1.32 1.176-2.22 2.748-2.22 1.224 0 2.172.408 2.844 1.116l-.6.732c-.6-.66-1.44-.96-2.316-.96-.96 0-1.644.516-1.644 1.272 0 .804.924 1.044 1.944 1.32 1.308.348 2.796.756 2.796 2.436 0 1.164-.792 2.352-2.952 2.352-1.392 0-2.412-.528-3.072-1.272zm8.736 1.272c-.852 0-1.284-.492-1.284-1.356v-3.792h-.96v-.792h.96V11.62h.9v1.584h1.176v.792H71.51v3.6c0 .432.192.744.588.744.252 0 .492-.108.612-.24l.264.672c-.228.216-.552.372-1.08.372zm4.596 0c-1.764 0-2.868-1.368-2.868-3.048s1.104-3.036 2.868-3.036c1.764 0 2.868 1.356 2.868 3.036s-1.104 3.048-2.868 3.048zm0-.804c1.236 0 1.92-1.056 1.92-2.244 0-1.176-.684-2.232-1.92-2.232-1.236 0-1.932 1.056-1.932 2.232 0 1.188.696 2.244 1.932 2.244zm4.332.66v-5.796h.9v.936c.468-.612 1.14-1.056 1.932-1.056v.924a1.586 1.586 0 0 0-.36-.036c-.552 0-1.308.456-1.572.924V19h-.9zm3.624-2.904c0-1.68 1.2-3.036 2.856-3.036 1.752 0 2.784 1.368 2.784 3.108v.228h-4.692c.072 1.092.84 2.004 2.088 2.004.66 0 1.332-.264 1.788-.732l.432.588c-.576.576-1.356.888-2.304.888-1.716 0-2.952-1.236-2.952-3.048zm2.844-2.292c-1.236 0-1.848 1.044-1.896 1.932h3.804c-.012-.864-.588-1.932-1.908-1.932z" fill="#979797"/></g></svg><svg width="30" height="30" viewBox="0 0 30 30" x="101" y="30"><path fill="#4A4A4A" fill-rule="evenodd" d="M20.266 5.115l.163.163a.392.392 0 0 1 0 .555L11.4 14.86a.196.196 0 0 0 0 .28l9.03 9.027a.392.392 0 0 1 0 .555l-.164.163a.392.392 0 0 1-.555 0l-9.595-9.62a.392.392 0 0 1 0-.554l9.596-9.595a.392.392 0 0 1 .556 0"/></svg><svg width="24" height="24" viewBox="0 0 24 24" x="131" y="60"><title>1.close</title><g fill="none"><path d="M20.415 3.55A11.96 11.96 0 1 0 3.503 20.46 11.96 11.96 0 0 0 20.415 3.55z" fill="#444"/><path d="M16.5 15.763l-3.516-3.515a.234.234 0 0 1 0-.332L16.5 8.4a.563.563 0 1 0-.797-.796l-3.515 3.515a.234.234 0 0 1-.332 0L8.34 7.603a.562.562 0 1 0-.796.796l3.515 3.516a.234.234 0 0 1 0 .332l-3.516 3.515a.562.562 0 1 0 .796.797l3.516-3.516a.234.234 0 0 1 .332 0l3.515 3.516a.563.563 0 1 0 .797-.797z" fill="#FFF" fill-rule="nonzero"/></g></svg><svg width="31" height="30" viewBox="0 0 31 30" x="155" y="84"><g fill="none"><path fill="#E4AF18" d="M15.166 26.36c-6.598 0-11.948-2.758-11.948-5.91v3.84c0 3.152 5.35 5.707 11.948 5.707 6.6 0 11.948-2.555 11.948-5.706v-3.84c0 3.152-5.35 5.91-11.948 5.91"/><path fill="#CE9912" d="M4.597 26.974c.27.245.578.48.92.702v-3.77a7.665 7.665 0 0 1-.92-.727v3.794zm20.22-3.067v3.77c.34-.223.648-.458.92-.703V23.18a7.55 7.55 0 0 1-.92.727m-18.382 4.3c.29.148.597.288.92.42v-3.723c-.323-.14-.63-.288-.92-.443v3.746zm16.543.42c.322-.132.63-.272.92-.422V24.46c-.29.156-.598.304-.92.444v3.724zm-1.84.605c.323-.133.63-.136.92-.285V25c-.29.155-.597.304-.92.443v3.79zm-12.865-.26c.297.1.603.194.92.28v-3.687a16.958 16.958 0 0 1-.92-.298v3.705zm11.013.675c.315-.087.638-.12.935-.22V25.72c-.296.106-.602.206-.918.3l-.016 3.626zm-8.716-.067c.3.06.608.114.92.162v-3.657a20.435 20.435 0 0 1-.92-.172v3.667zm6.894.306c.312-.05.62-.042.92-.1v-3.873c-.3.064-.608.12-.92.173v3.8zm-4.595.065c.3.024.608.04.918.05v-3.638c-.31-.012-.617-.028-.92-.052v3.64zm2.296.05c.31-.01.617-.026.92-.05v-3.64c-.303.024-.61.04-.92.052V30z"/><path fill="#FCC62D" d="M27.114 20.455c0 3.15-5.35 5.91-11.948 5.91-6.598 0-11.948-2.76-11.948-5.91 0-3.15 5.35-5.455 11.948-5.455 6.6 0 11.948 2.304 11.948 5.455"/><path fill="#FFD949" d="M15.166 24.53c-6.287 0-10.11-2.414-10.11-4.075 0-1.662 3.823-4.09 10.11-4.09 6.288 0 10.11 2.43 10.11 4.09 0 1.66-3.822 4.075-10.11 4.075"/><path fill="#E4AF18" d="M18.843 20.906c-6.6 0-11.95-2.758-11.95-5.91v3.84c0 3.152 5.35 5.706 11.95 5.706 6.598 0 11.948-2.554 11.948-5.705v-3.84c0 3.15-5.35 5.91-11.947 5.91"/><path fill="#CE9912" d="M8.273 21.52c.27.244.58.48.92.7v-3.767a7.665 7.665 0 0 1-.92-.728v3.794zm20.22-3.067v3.768c.34-.22.648-.456.92-.7v-3.796a7.55 7.55 0 0 1-.92.73M10.11 22.75c.29.15.6.29.92.424V19.45c-.32-.14-.63-.288-.92-.444v3.745zm16.545.423a12.6 12.6 0 0 0 .92-.422v-3.744c-.29.155-.6.304-.92.443v3.723zm-14.705.344c.296.1.603.194.92.282v-3.69a16.958 16.958 0 0 1-.92-.298v3.705zm12.867.282c.315-.09.622-.182.92-.283v-3.705a16.26 16.26 0 0 1-.92.298v3.69zm-10.57.326c.3.06.607.114.92.16v-3.655a20.435 20.435 0 0 1-.92-.17v3.666zm1.838.204c.3.06.674.056.92.107V20.63a20.435 20.435 0 0 1-.92-.17v3.87zm6.434-.042c.31-.048.618-.102.918-.162V20.46c-.3.063-.607.12-.92.172v3.657zm-5.056.21c.302.02.61.037.92.047v-3.637c-.31-.012-.618-.028-.92-.053v3.642zm2.298.047c.31-.01.616-.026.92-.048v-3.642c-.304.024-.61.04-.92.053v3.637z"/><path fill="#FCC62D" d="M30.79 15c0 3.15-5.35 5.91-11.947 5.91-6.6 0-11.95-2.76-11.95-5.91 0-3.15 5.35-5.455 11.95-5.455C25.44 9.545 30.79 11.85 30.79 15"/><path fill="#FFD949" d="M18.843 19.075c-6.288 0-10.11-2.413-10.11-4.075 0-1.66 3.822-4.09 10.11-4.09 6.287 0 10.11 2.43 10.11 4.09 0 1.662-3.823 4.075-10.11 4.075"/><path fill="#E4AF18" d="M11.95 16.36C5.35 16.36 0 13.602 0 10.45v3.84c0 3.152 5.35 5.707 11.948 5.707 6.6 0 11.948-2.555 11.948-5.706v-3.84c0 3.152-5.35 5.91-11.948 5.91"/><path fill="#CE9912" d="M1.38 16.974c.27.245.58.48.92.702v-3.77a7.665 7.665 0 0 1-.92-.727v3.794zm20.22-3.067v3.77c.34-.223.648-.458.92-.703V13.18a7.55 7.55 0 0 1-.92.727m-18.382 4.3c.29.148.598.288.92.42v-3.723c-.322-.14-.63-.288-.92-.443v3.746zm16.544.42c.32-.132.628-.272.92-.422V14.46c-.29.156-.6.304-.92.444v3.724zm-14.706.345c.297.1.604.194.92.28v-3.687a16.958 16.958 0 0 1-.92-.298v3.705zm12.867.28c.316-.086.623-.18.92-.28v-3.705c-.297.106-.604.205-.92.298v3.688zm-10.57.328c.3.06.608.114.92.162v-3.657a20.435 20.435 0 0 1-.92-.172v3.667zm1.84.205c.3.06.673.056.92.107v-3.807a20.435 20.435 0 0 1-.92-.172v3.872zm6.433-.043c.312-.048.62-.102.92-.16v-3.67c-.3.065-.608.122-.92.174v3.656zm-5.056.21c.303.022.61.037.92.048v-3.638c-.31-.012-.617-.028-.92-.052v3.64zm2.3.048c.31-.01.615-.026.918-.05v-3.64c-.303.024-.61.04-.92.052V20z"/><path fill="#FCC62D" d="M23.897 10.455c0 3.15-5.35 5.91-11.948 5.91-6.6 0-11.95-2.76-11.95-5.91C0 7.304 5.35 5 11.95 5s11.948 2.304 11.948 5.455"/><path fill="#FFD949" d="M11.95 14.53c-6.288 0-10.11-2.414-10.11-4.075 0-1.662 3.822-4.09 10.11-4.09 6.287 0 10.11 2.43 10.11 4.09 0 1.66-3.823 4.075-10.11 4.075"/><path fill="#E4AF18" d="M15.166 11.36c-6.598 0-11.948-2.758-11.948-5.91v3.84c0 3.152 5.35 5.707 11.948 5.707 6.6 0 11.948-2.555 11.948-5.706V5.45c0 3.152-5.35 5.91-11.948 5.91"/><path fill="#CE9912" d="M4.597 11.974c.27.245.578.48.92.702v-3.77a7.665 7.665 0 0 1-.92-.727v3.794zm20.22-3.067v3.77c.34-.223.648-.458.92-.703V8.18a7.55 7.55 0 0 1-.92.727m-18.382 4.3c.29.148.597.288.92.42V9.905c-.323-.14-.63-.288-.92-.443v3.746zm16.543.42c.322-.132.63-.272.92-.422V9.46c-.29.156-.598.304-.92.444v3.724zm-14.705.345c.297.1.603.194.92.28v-3.687a16.958 16.958 0 0 1-.92-.298v3.705zm12.867.28c.316-.086.622-.18.92-.28v-3.705c-.298.106-.604.205-.92.298v3.688zm-10.57.328c.3.06.608.114.92.162v-3.657a20.435 20.435 0 0 1-.92-.172v3.667zm1.84.205c.3.06.672.056.92.107v-3.807a20.435 20.435 0 0 1-.92-.172v3.872zm6.433-.043c.312-.048.62-.102.92-.16v-3.67c-.3.065-.608.122-.92.174v3.656zm-5.055.21c.302.022.61.037.92.048v-3.638c-.31-.012-.618-.028-.92-.052v3.64zm2.297.048c.31-.01.617-.026.92-.05v-3.64c-.303.024-.61.04-.92.052V15z"/><path fill="#FCC62D" d="M27.114 5.455c0 3.15-5.35 5.91-11.948 5.91-6.598 0-11.948-2.76-11.948-5.91C3.218 2.304 8.568 0 15.166 0c6.6 0 11.948 2.304 11.948 5.455"/><path fill="#FFD949" d="M15.166 9.53c-6.287 0-10.11-2.414-10.11-4.075 0-1.662 3.823-4.09 10.11-4.09 6.288 0 10.11 2.43 10.11 4.09 0 1.66-3.822 4.075-10.11 4.075"/></g></svg><svg width="101" height="30" viewBox="0 0 101 30" x="186" y="114"><title>google paly</title><g fill="none"><path d="M30.54 15.004c0-2.484 1.836-4.14 4.116-4.14 1.416 0 2.4.624 3.108 1.5l-.792.492c-.504-.648-1.356-1.104-2.316-1.104-1.752 0-3.084 1.344-3.084 3.252 0 1.896 1.332 3.264 3.084 3.264.96 0 1.752-.468 2.148-.864v-1.632h-2.748v-.888H37.8v2.892c-.744.828-1.836 1.38-3.144 1.38-2.28 0-4.116-1.668-4.116-4.152zm11.376 4.14c-1.764 0-2.868-1.368-2.868-3.048s1.104-3.036 2.868-3.036c1.764 0 2.868 1.356 2.868 3.036s-1.104 3.048-2.868 3.048zm0-.804c1.236 0 1.92-1.056 1.92-2.244 0-1.176-.684-2.232-1.92-2.232-1.236 0-1.932 1.056-1.932 2.232 0 1.188.696 2.244 1.932 2.244zm6.864.804c-1.764 0-2.868-1.368-2.868-3.048s1.104-3.036 2.868-3.036c1.764 0 2.868 1.356 2.868 3.036s-1.104 3.048-2.868 3.048zm0-.804c1.236 0 1.92-1.056 1.92-2.244 0-1.176-.684-2.232-1.92-2.232-1.236 0-1.932 1.056-1.932 2.232 0 1.188.696 2.244 1.932 2.244zm4.32 2.148l.456-.672c.48.576 1.056.792 1.884.792.96 0 1.86-.468 1.86-1.74v-.828c-.42.588-1.128 1.032-1.944 1.032-1.512 0-2.58-1.128-2.58-3 0-1.86 1.056-3.012 2.58-3.012.78 0 1.476.384 1.944 1.02v-.876h.9v5.628c0 1.92-1.344 2.52-2.76 2.52-.984 0-1.656-.192-2.34-.864zm4.2-3.156V14.8c-.312-.504-1.008-.936-1.728-.936-1.164 0-1.86.924-1.86 2.208 0 1.272.696 2.208 1.86 2.208.72 0 1.416-.444 1.728-.948zM60 19v-8.004h.9V19H60zm2.364-2.904c0-1.68 1.2-3.036 2.856-3.036 1.752 0 2.784 1.368 2.784 3.108v.228h-4.692c.072 1.092.84 2.004 2.088 2.004.66 0 1.332-.264 1.788-.732l.432.588c-.576.576-1.356.888-2.304.888-1.716 0-2.952-1.236-2.952-3.048zm2.844-2.292c-1.236 0-1.848 1.044-1.896 1.932h3.804c-.012-.864-.588-1.932-1.908-1.932zM72.588 19v-8.004h3.216c1.608 0 2.508 1.104 2.508 2.412 0 1.308-.924 2.412-2.508 2.412h-2.22V19h-.996zm4.692-5.592c0-.9-.648-1.524-1.596-1.524h-2.1v3.048h2.1c.948 0 1.596-.624 1.596-1.524zM79.596 19v-8.004h.9V19h-.9zm6.324 0v-.66c-.48.528-1.14.804-1.92.804-.984 0-2.028-.66-2.028-1.92 0-1.296 1.044-1.908 2.028-1.908.792 0 1.452.252 1.92.792v-1.044c0-.78-.624-1.224-1.464-1.224-.696 0-1.26.252-1.776.804l-.42-.624c.624-.648 1.368-.96 2.316-.96 1.224 0 2.244.552 2.244 1.956V19h-.9zm0-1.224v-1.092c-.348-.48-.96-.72-1.596-.72-.84 0-1.428.528-1.428 1.272 0 .732.588 1.26 1.428 1.26.636 0 1.248-.24 1.596-.72zm2.52 2.676c.132.06.348.096.492.096.396 0 .66-.132.864-.612l.384-.876-2.424-5.856h.972l1.932 4.752 1.92-4.752h.984l-2.904 6.972c-.348.84-.936 1.164-1.704 1.176-.192 0-.492-.036-.66-.084l.144-.816z" fill="#979797"/><rect stroke="#979797" x=".5" y=".5" width="99.148" height="29" rx="3"/><path d="M9.062 5.315a1.95 1.95 0 0 0-1.512-.263l8.994 9.02 2.915-2.922L9.06 5.315z" fill="#3DB39E" fill-rule="nonzero"/><path d="M6.434 5.786c-.25.334-.395.745-.395 1.18v16.068c0 .435.143.845.394 1.18L15.62 15 6.434 5.786z" fill="#349886" fill-rule="nonzero"/><path d="M23.263 13.285l-2.62-1.47L17.468 15l3.176 3.185 2.62-1.47A1.944 1.944 0 0 0 24.266 15c0-.722-.375-1.363-1.003-1.715z" fill="#F4B459" fill-rule="nonzero"/><path d="M16.544 15.926l-8.993 9.02a1.954 1.954 0 0 0 1.512-.262L19.46 18.85l-2.916-2.924z" fill="#E2574C" fill-rule="nonzero"/></g></svg><svg width="17" height="12" viewBox="0 0 17 12" x="287" y="144"><title>1hide</title><g fill="none"><path d="M8.56 9.563c-3.287 0-6.734-3.084-7.424-3.734a.165.165 0 0 1 0-.24c.687-.66 4.136-3.792 7.425-3.792 3.292 0 6.65 3.138 7.316 3.793a.165.165 0 0 1 0 .237c-.668.646-4.025 3.736-7.315 3.736zm7.985-4.384c-.163-.17-4.03-4.147-7.984-4.147-3.948 0-7.924 3.97-8.09 4.138l-.422.426a.165.165 0 0 0 0 .234l.425.42C.64 6.42 4.616 10.33 8.56 10.33c3.952 0 7.818-3.918 7.98-4.085l.406-.415a.165.165 0 0 0 0-.23l-.4-.42zM8.47 7.18a1.466 1.466 0 1 1 0-2.932 1.466 1.466 0 0 1 0 2.93m0-3.864a2.402 2.402 0 0 0-2.4 2.4c0 1.323 1.076 2.4 2.4 2.4 1.322 0 2.4-1.077 2.4-2.4 0-1.324-1.078-2.4-2.4-2.4" fill="#979797"/><path d="M13 0L4 12" stroke="#979797" stroke-linecap="round"/></g></svg><svg width="14" height="14" viewBox="0 0 14 14" x="304" y="156"><title>1.info active</title><g fill="none"><path d="M11.95 2.05A6.954 6.954 0 0 0 7 0C5.13 0 3.372.728 2.05 2.05A6.954 6.954 0 0 0 0 7c0 1.87.728 3.628 2.05 4.95A6.954 6.954 0 0 0 7 14c1.87 0 3.628-.728 4.95-2.05A6.954 6.954 0 0 0 14 7c0-1.87-.728-3.628-2.05-4.95" fill="#666"/><path d="M7.072 10.6h-.13c-.18 0-.326-.13-.326-.288v-5.17c0-.16.145-.288.325-.288h.13c.18 0 .327.13.327.29v5.168c0 .16-.146.29-.325.29m.118-7.23h-.386a.27.27 0 0 0-.27.27v.46c0 .15.12.27.27.27h.385a.27.27 0 0 0 .27-.27v-.46a.27.27 0 0 0-.27-.27" fill="#FFF"/></g></svg><svg width="14" height="14" viewBox="0 0 14 14" x="318" y="170"><title>1.info deactive</title><g fill="#979797" fill-rule="evenodd"><path d="M7 13.232A6.232 6.232 0 1 1 7 .768a6.232 6.232 0 0 1 0 12.464M11.95 2.05A6.954 6.954 0 0 0 7 0C5.13 0 3.372.728 2.05 2.05A6.954 6.954 0 0 0 0 7c0 1.87.728 3.628 2.05 4.95A6.954 6.954 0 0 0 7 14c1.87 0 3.628-.728 4.95-2.05A6.954 6.954 0 0 0 14 7c0-1.87-.728-3.628-2.05-4.95M7.072 10.6h-.13c-.18 0-.326-.13-.326-.288v-5.17c0-.16.145-.288.325-.288h.13c.18 0 .327.13.327.29v5.168c0 .16-.146.29-.325.29m.118-7.23h-.386a.27.27 0 0 0-.27.27v.46c0 .15.12.27.27.27h.385a.27.27 0 0 0 .27-.27v-.46a.27.27 0 0 0-.27-.27"/></g></svg><svg width="20" height="20" viewBox="0 0 20 20" x="332" y="184"><title>ontime</title><g fill="none"><path d="M14.483 19.006c-2.513 0-4.55-2.092-4.55-4.673 0-2.58 2.037-4.673 4.55-4.673s4.55 2.092 4.55 4.673-2.037 4.673-4.55 4.673m0-10.34c-3.042 0-5.517 2.543-5.517 5.667 0 3.125 2.475 5.667 5.517 5.667C17.525 20 20 17.458 20 14.333c0-3.124-2.475-5.666-5.517-5.666M9.463 18.357C4.753 18.254.965 14.395.973 9.65A8.672 8.672 0 0 1 9.655.974c4.795 0 8.682 3.892 8.682 8.693 0 .086.037.167.103.22.136.108.267.222.393.34.174.165.46.05.47-.188a9.61 9.61 0 0 0-2.82-7.21A9.638 9.638 0 0 0 9.654 0a9.586 9.586 0 0 0-6.827 2.83A9.61 9.61 0 0 0 0 9.668a9.66 9.66 0 0 0 2.828 6.835 9.586 9.586 0 0 0 6.98 2.83.28.28 0 0 0 .203-.466 6.25 6.25 0 0 1-.33-.402.277.277 0 0 0-.217-.107M9.368 4h-.115c-.16 0-.287-.168-.287-.376V2.376c0-.208.128-.376.287-.376h.115c.16 0 .287.168.287.376v1.248c0 .208-.128.376-.287.376m-7.3 5.056v-.112c0-.153.175-.277.39-.277h1.29c.216 0 .39.124.39.277v.112c0 .153-.174.277-.39.277h-1.29c-.215 0-.39-.124-.39-.277m11.163 8.15l-1.392-1.534a.462.462 0 0 1 0-.608l.11-.122a.365.365 0 0 1 .553 0l.87.958c.076.084.2.084.275 0l2.82-3.107a.365.365 0 0 1 .552 0l.11.12a.462.462 0 0 1 0 .61l-3.344 3.684a.365.365 0 0 1-.552 0M3.45 6.333a.34.34 0 0 1-.345.334.34.34 0 0 1-.344-.334A.34.34 0 0 1 3.102 6c.19 0 .345.15.345.333m0 6.667a.34.34 0 0 1-.345.333A.34.34 0 0 1 2.76 13a.34.34 0 0 1 .344-.333c.19 0 .345.15.345.333" fill="#666"/><path d="M15.862 6.333a.34.34 0 0 1-.345.334.34.34 0 0 1-.345-.334.34.34 0 0 1 .345-.333c.19 0 .345.15.345.333" fill="#606060"/><path d="M5.517 3.667A.34.34 0 0 1 5.172 4a.34.34 0 0 1-.344-.333.34.34 0 0 1 .344-.334c.19 0 .345.15.345.334m.69 12a.34.34 0 0 1-.345.333.34.34 0 0 1-.345-.333.34.34 0 0 1 .345-.334c.19 0 .345.15.345.334" fill="#666"/><path d="M13.793 3.667a.34.34 0 0 1-.345.333.34.34 0 0 1-.345-.333.34.34 0 0 1 .345-.334c.19 0 .345.15.345.334" fill="#606060"/><path d="M7.754 7.25l1.812 1.535c.084.07.22.07.304 0l2.376-2.012a.488.488 0 0 1 .61 0l.12.104a.326.326 0 0 1 0 .515l-2.953 2.5a.488.488 0 0 1-.61 0L7.023 7.87a.326.326 0 0 1 0-.515l.123-.103a.488.488 0 0 1 .61 0" fill="#666"/></g></svg><svg width="19" height="20" viewBox="0 0 19 20" x="352" y="204"><title>quality icon</title><g fill="none"><path d="M9.18 12.71c-.684-.978-1.54-1.183-2.14-1.183-.224 0-.51.03-.848.13a.197.197 0 0 1-.25-.216c.05-.405.138-.905.29-1.414a.402.402 0 0 0-.236-.49L5.85 9.48a.387.387 0 0 0-.51.258c-.165.55-.284 1.365-.336 1.766a.194.194 0 0 1-.248.165 3.002 3.002 0 0 0-.886-.143c-.6 0-1.457.205-2.14 1.182-.534.763-.74 1.724-.594 2.776.13.94.51 1.747.725 2.145.3.557 1.41 2.37 3.067 2.37.178 0 .354-.02.528-.063.173.042.35.063.527.063 1.657 0 2.765-1.813 3.066-2.37.215-.397.595-1.204.725-2.144.145-1.052-.06-2.013-.594-2.777" fill="#666"/><path d="M8.23 17.165c-.307.57-1.4 2.27-2.713 1.79a.183.183 0 0 0-.125 0c-1.313.48-2.406-1.22-2.713-1.79-.5-.923-1.084-2.616-.19-3.896.99-1.415 2.452-.533 2.86-.26a.19.19 0 0 0 .21 0c.407-.273 1.87-1.155 2.86.26.894 1.28.31 2.972-.19 3.895" fill="#FFF"/><path d="M15.598 8.34l-1.8-4.073a.202.202 0 0 1-.012-.066V3h.143c.214 0 .39-.18.39-.398V.417a.394.394 0 0 0-.39-.397H9.34a.394.394 0 0 0-.39.397v2.185c0 .22.173.397.39.397h.142v1.2a.2.2 0 0 1-.012.067L7.67 8.34a.403.403 0 0 0-.023.13v2.23c0 .198.142.365.333.394l.136.024a.393.393 0 0 0 .468-.39V8.66c0-.023.004-.045.01-.066l1.813-4.105a.2.2 0 0 0 .01-.067V3.198c0-.11.088-.2.196-.2h2.04c.11 0 .196.09.196.2v1.225c0 .023.003.045.01.066l1.812 4.104a.202.202 0 0 1 .01.066v10.13c0 .11-.086.197-.194.197H9.24a.387.387 0 0 0-.29.135 6.11 6.11 0 0 1-.134.148c-.235.254-.06.67.283.67h6.13c.215 0 .39-.177.39-.397V8.47a.404.404 0 0 0-.022-.13z" fill="#606060"/><path d="M13.344 1.808c0 .11-.088.198-.196.198h-3.03a.197.197 0 0 1-.194-.198v-.596c0-.11.087-.2.195-.2h3.03c.106 0 .194.09.194.2v.596z" fill="#FFF"/><path fill="#666" d="M6.263 3.918l1.373.627-1.373.628-.627 1.372-.627-1.372-1.374-.628 1.373-.627.626-1.373zm-4.61 3.878l.865.395-.865.395-.394.865-.396-.865L0 8.19l.864-.394.395-.864zm-.095-3.9l.624.286-.624.285-.285.624-.285-.623-.624-.285.624-.285.285-.624zM17.92 6.443l.625.285-.624.285-.284.624-.285-.624-.623-.285.624-.285.286-.624zm.25-6.068l.375.17-.374.172-.17.375-.17-.374-.375-.17.374-.172L18 0zM3.74.624l.624.285-.624.284-.285.624-.286-.624L2.544.91 3.17.624 3.455 0zm12.84 2.43l.875.4-.874.4-.4.873-.397-.873-.874-.4.873-.4.4-.872z"/></g></svg><svg width="16" height="15" viewBox="0 0 16 15" x="371" y="224"><g fill="#979797"><path d="M6.945 14.246A6.952 6.952 0 0 1 0 7.3 6.952 6.952 0 0 1 6.945.356 6.953 6.953 0 0 1 13.89 7.3a.397.397 0 1 1-.795 0 6.158 6.158 0 0 0-6.15-6.15A6.158 6.158 0 0 0 .792 7.3c0 3.392 2.76 6.15 6.15 6.15a6.182 6.182 0 0 0 5.306-3.034.397.397 0 0 1 .684.403 6.978 6.978 0 0 1-5.988 3.425zM13.492 7.698a.397.397 0 0 1-.2-.055l-2.488-1.468a.397.397 0 1 1 .404-.683l2.17 1.28 1.396-2a.397.397 0 0 1 .65.454L13.82 7.528c-.077.11-.2.17-.326.17z"/></g></svg><svg width="19" height="20" viewBox="0 0 19 20" x="387" y="239"><title>11</title><g fill="none"><path d="M3.494 1.205l-1.63 3.88c-.12.285.095.6.385.568l3.965-.435c.29-.032.44-.387.268-.64L4.148 1.134a.368.368 0 0 0-.654.072" fill="#666" transform="translate(0 -1)"/><path d="M4.14 2.78l.874 1.29c.086.125.01.303-.134.32l-1.482.16c-.145.017-.252-.14-.193-.283l.61-1.45a.184.184 0 0 1 .326-.036" fill="#FFF" transform="translate(0 -1)"/><path d="M9.494 1.302c-1.51 0-2.966.35-4.275 1.012l.57.79a8.5 8.5 0 0 1 3.62-.845 8.516 8.516 0 0 1 8.622 8.523 8.537 8.537 0 1 1-17.075-.066.398.398 0 0 0-.398-.403H.4a.4.4 0 0 0-.4.396v.087c0 2.536.988 4.92 2.78 6.714a9.483 9.483 0 0 0 6.714 2.78c2.536 0 4.92-.986 6.714-2.78a9.432 9.432 0 0 0 2.78-6.713c0-2.536-.987-4.92-2.78-6.713a9.432 9.432 0 0 0-6.714-2.78z" fill="#666" transform="translate(0 -1)"/><path d="M12.348 8.454a.395.395 0 0 1-.393-.325c-.164-.973-1.04-1.717-2.095-1.717-1.054 0-1.93.744-2.095 1.716a.395.395 0 0 1-.393.324H4.78a.39.39 0 0 0-.395.43l.717 4.65c.152 1.148 1.166 2.01 2.368 2.01h4.78c1.202 0 2.216-.86 2.368-2.01l.717-4.65a.39.39 0 0 0-.395-.43h-2.592z" fill="#606060" transform="translate(0 -1)"/><path d="M12.11 14.623h-4.5c-.8 0-1.477-.574-1.58-1.34L5.44 9.59a.194.194 0 0 1 .2-.217h8.44c.12 0 .214.102.2.216l-.59 3.694c-.103.765-.78 1.34-1.58 1.34zm-2.25-7.29c.56 0 1.03.382 1.142.89.026.12-.07.23-.195.23H8.913c-.126 0-.22-.11-.195-.23a1.16 1.16 0 0 1 1.142-.89z" fill="#FFF" transform="translate(0 -1)"/><path d="M9.77 12.352h-.184c-.252 0-.456-.184-.456-.412V9.842c0-.227.204-.412.456-.412h.183c.25 0 .455.185.455.412v2.098c0 .228-.204.412-.456.412m1.825 0h-.183c-.252 0-.456-.184-.456-.412V9.842c0-.227.204-.412.456-.412h.183c.252 0 .456.185.456.412v2.098c0 .228-.203.412-.455.412m-3.287 0h-.183c-.252 0-.456-.184-.456-.412V9.842c0-.227.203-.412.455-.412h.183c.252 0 .456.185.456.412v2.098c0 .228-.204.412-.456.412" fill="#606060"/></g></svg><svg width="17" height="10" viewBox="0 0 17 10" x="406" y="259"><title>2view</title><g fill="none"><path d="M8.56 8.563c-3.287 0-6.734-3.084-7.424-3.734a.165.165 0 0 1 0-.24C1.822 3.93 5.27.797 8.56.797c3.29 0 6.65 3.138 7.315 3.793a.165.165 0 0 1 0 .237c-.668.646-4.025 3.736-7.315 3.736zm7.985-4.384C16.382 4.01 12.515.032 8.56.032 4.613.033.637 4.003.47 4.17l-.422.426a.165.165 0 0 0 0 .234l.425.42C.64 5.42 4.616 9.33 8.56 9.33c3.952 0 7.818-3.918 7.98-4.085l.406-.415a.165.165 0 0 0 0-.23l-.4-.42zM8.47 2.314a2.402 2.402 0 0 0-2.4 2.4c0 1.323 1.076 2.4 2.4 2.4 1.322 0 2.4-1.077 2.4-2.4 0-1.324-1.078-2.4-2.4-2.4" fill="#979797"/><path d="M8.47 6.18a1.466 1.466 0 1 1 0-2.932 1.466 1.466 0 0 1 0 2.93" fill="#FFF"/></g></svg></svg>