<?xml version="1.0" encoding="utf-8"?>
<!-- Generator: Adobe Illustrator 19.0.0, SVG Export Plug-In . SVG Version: 6.00 Build 0)  -->
<svg version="1.1" id="Layer_1" xmlns="http://www.w3.org/2000/svg" xmlns:xlink="http://www.w3.org/1999/xlink" x="0px" y="0px"
	 viewBox="0 0 50 50" style="enable-background:new 0 0 50 50;" xml:space="preserve">
<style type="text/css">
	.st0{fill:#333;}
</style>
<path id="XMLID_9_" class="st0" d="M47.6,44.6l-11.5-12c3-3.5,4.6-8,4.6-12.6c0-10.8-8.8-19.6-19.6-19.6C10.3,0.4,1.5,9.2,1.5,20
	c0,10.8,8.8,19.6,19.6,19.6c4.1,0,7.9-1.2,11.2-3.5L44,48.2c0.5,0.5,1.1,0.8,1.8,0.8c0.7,0,1.3-0.3,1.8-0.7
	C48.6,47.3,48.6,45.7,47.6,44.6L47.6,44.6z M21.1,5.6c8,0,14.5,6.5,14.5,14.5c0,8-6.5,14.5-14.5,14.5c-8,0-14.5-6.5-14.5-14.5
	C6.6,12.1,13.1,5.6,21.1,5.6L21.1,5.6z M21.1,5.6"/>
</svg>
